<mxfile host="app.diagrams.net" agent="Mozilla/5.0 (Windows NT 10.0; Win64; x64) AppleWebKit/537.36 (KHTML, like Gecko) Chrome/131.0.0.0 Safari/537.36" version="26.0.3">
  <diagram name="第 1 页" id="X6OiR5LSY3f-KMtXDTCW">
    <mxGraphModel grid="1" page="1" gridSize="10" guides="1" tooltips="1" connect="1" arrows="1" fold="1" pageScale="1" pageWidth="1169" pageHeight="827" math="0" shadow="0">
      <root>
        <mxCell id="0" />
        <mxCell id="1" parent="0" />
        <mxCell id="MBn5_fxdMgbhWObXC38B-1" value="Restful API" style="shape=module;align=left;spacingLeft=20;align=center;verticalAlign=top;whiteSpace=wrap;html=1;" vertex="1" parent="1">
          <mxGeometry x="60" y="140" width="100" height="50" as="geometry" />
        </mxCell>
        <mxCell id="MBn5_fxdMgbhWObXC38B-2" value="smart-order-activiti" style="shape=module;align=left;spacingLeft=20;align=center;verticalAlign=top;whiteSpace=wrap;html=1;" vertex="1" parent="1">
          <mxGeometry x="730" y="140" width="150" height="50" as="geometry" />
        </mxCell>
        <mxCell id="MBn5_fxdMgbhWObXC38B-3" value="byd-iot" style="shape=module;align=left;spacingLeft=20;align=center;verticalAlign=top;whiteSpace=wrap;html=1;" vertex="1" parent="1">
          <mxGeometry x="390" y="340" width="100" height="50" as="geometry" />
        </mxCell>
        <mxCell id="MBn5_fxdMgbhWObXC38B-18" value="" style="edgeStyle=orthogonalEdgeStyle;rounded=0;orthogonalLoop=1;jettySize=auto;html=1;" edge="1" parent="1" source="MBn5_fxdMgbhWObXC38B-4" target="MBn5_fxdMgbhWObXC38B-7">
          <mxGeometry relative="1" as="geometry">
            <Array as="points">
              <mxPoint x="440" y="260" />
              <mxPoint x="440" y="260" />
            </Array>
          </mxGeometry>
        </mxCell>
        <mxCell id="MBn5_fxdMgbhWObXC38B-20" value="" style="edgeStyle=orthogonalEdgeStyle;rounded=0;orthogonalLoop=1;jettySize=auto;html=1;" edge="1" parent="1" source="MBn5_fxdMgbhWObXC38B-4" target="MBn5_fxdMgbhWObXC38B-3">
          <mxGeometry relative="1" as="geometry" />
        </mxCell>
        <mxCell id="MBn5_fxdMgbhWObXC38B-4" value="lift-supervision-adapter-identity" style="shape=module;align=left;spacingLeft=20;align=center;verticalAlign=top;whiteSpace=wrap;html=1;" vertex="1" parent="1">
          <mxGeometry x="330" y="260" width="220" height="50" as="geometry" />
        </mxCell>
        <mxCell id="MBn5_fxdMgbhWObXC38B-11" value="" style="edgeStyle=orthogonalEdgeStyle;rounded=0;orthogonalLoop=1;jettySize=auto;html=1;" edge="1" parent="1" source="MBn5_fxdMgbhWObXC38B-5" target="MBn5_fxdMgbhWObXC38B-7">
          <mxGeometry relative="1" as="geometry" />
        </mxCell>
        <mxCell id="MBn5_fxdMgbhWObXC38B-22" value="" style="edgeStyle=orthogonalEdgeStyle;rounded=0;orthogonalLoop=1;jettySize=auto;html=1;" edge="1" parent="1" source="MBn5_fxdMgbhWObXC38B-5" target="MBn5_fxdMgbhWObXC38B-2">
          <mxGeometry relative="1" as="geometry" />
        </mxCell>
        <mxCell id="MBn5_fxdMgbhWObXC38B-5" value="lift-supervision-adapter-order" style="shape=module;align=left;spacingLeft=20;align=center;verticalAlign=top;whiteSpace=wrap;html=1;" vertex="1" parent="1">
          <mxGeometry x="510" y="140" width="190" height="50" as="geometry" />
        </mxCell>
        <mxCell id="MBn5_fxdMgbhWObXC38B-6" value="scheduler" style="shape=module;align=left;spacingLeft=20;align=center;verticalAlign=top;whiteSpace=wrap;html=1;" vertex="1" parent="1">
          <mxGeometry x="280" y="10" width="100" height="50" as="geometry" />
        </mxCell>
        <mxCell id="MBn5_fxdMgbhWObXC38B-13" value="" style="edgeStyle=orthogonalEdgeStyle;rounded=0;orthogonalLoop=1;jettySize=auto;html=1;" edge="1" parent="1" source="MBn5_fxdMgbhWObXC38B-7" target="MBn5_fxdMgbhWObXC38B-6">
          <mxGeometry relative="1" as="geometry" />
        </mxCell>
        <mxCell id="MBn5_fxdMgbhWObXC38B-21" value="" style="edgeStyle=orthogonalEdgeStyle;rounded=0;orthogonalLoop=1;jettySize=auto;html=1;" edge="1" parent="1" source="MBn5_fxdMgbhWObXC38B-7" target="MBn5_fxdMgbhWObXC38B-1">
          <mxGeometry relative="1" as="geometry" />
        </mxCell>
        <mxCell id="MBn5_fxdMgbhWObXC38B-7" value="lift-supervision-adapter-context" style="shape=module;align=left;spacingLeft=20;align=center;verticalAlign=top;whiteSpace=wrap;html=1;" vertex="1" parent="1">
          <mxGeometry x="200" y="115" width="260" height="100" as="geometry" />
        </mxCell>
        <mxCell id="MBn5_fxdMgbhWObXC38B-15" value="" style="edgeStyle=orthogonalEdgeStyle;rounded=0;orthogonalLoop=1;jettySize=auto;html=1;" edge="1" parent="1" source="MBn5_fxdMgbhWObXC38B-8" target="MBn5_fxdMgbhWObXC38B-7">
          <mxGeometry relative="1" as="geometry">
            <Array as="points">
              <mxPoint x="230" y="230" />
              <mxPoint x="230" y="230" />
            </Array>
          </mxGeometry>
        </mxCell>
        <mxCell id="MBn5_fxdMgbhWObXC38B-16" value="" style="edgeStyle=orthogonalEdgeStyle;rounded=0;orthogonalLoop=1;jettySize=auto;html=1;" edge="1" parent="1" source="MBn5_fxdMgbhWObXC38B-8" target="MBn5_fxdMgbhWObXC38B-9">
          <mxGeometry relative="1" as="geometry" />
        </mxCell>
        <mxCell id="MBn5_fxdMgbhWObXC38B-8" value="lift-supervision-adapter-mybatis" style="shape=module;align=left;spacingLeft=20;align=center;verticalAlign=top;whiteSpace=wrap;html=1;" vertex="1" parent="1">
          <mxGeometry x="90" y="260" width="190" height="50" as="geometry" />
        </mxCell>
        <mxCell id="MBn5_fxdMgbhWObXC38B-9" value="mybatis" style="shape=module;align=left;spacingLeft=20;align=center;verticalAlign=top;whiteSpace=wrap;html=1;" vertex="1" parent="1">
          <mxGeometry x="135" y="340" width="100" height="50" as="geometry" />
        </mxCell>
        <mxCell id="MBn5_fxdMgbhWObXC38B-23" value="流程引擎依賴工單中台流程引擎,規則引擎" style="shape=note;whiteSpace=wrap;html=1;backgroundOutline=1;darkOpacity=0.05;fillColor=#fff2cc;strokeColor=#d6b656;" vertex="1" parent="1">
          <mxGeometry x="580" y="15" width="80" height="100" as="geometry" />
        </mxCell>
        <mxCell id="MBn5_fxdMgbhWObXC38B-24" value="員工,腳色菜單及token信息依賴碧有單" style="shape=note;whiteSpace=wrap;html=1;backgroundOutline=1;darkOpacity=0.05;fillColor=#fff2cc;strokeColor=#d6b656;" vertex="1" parent="1">
          <mxGeometry x="560" y="260" width="80" height="100" as="geometry" />
        </mxCell>
      </root>
    </mxGraphModel>
  </diagram>
</mxfile>
